<mxfile host="Electron" modified="2024-09-23T13:13:26.758Z" agent="Mozilla/5.0 (X11; Linux x86_64) AppleWebKit/537.36 (KHTML, like Gecko) draw.io/24.4.0 Chrome/122.0.6261.156 Electron/29.4.5 Safari/537.36" etag="oWHD5Yb4fOYfGXldfUMd" version="24.3.1" type="device">
  <diagram name="Seite-1" id="eyhBiREzb58VhTLafd4v">
    <mxGraphModel dx="1666" dy="989" grid="1" gridSize="10" guides="1" tooltips="1" connect="1" arrows="1" fold="1" page="1" pageScale="1" pageWidth="827" pageHeight="1169" math="0" shadow="0">
      <root>
        <mxCell id="0" />
        <mxCell id="1" parent="0" />
        <mxCell id="lFr79jCBY1Wh5QH8uVRF-1" value="" style="rounded=0;whiteSpace=wrap;html=1;" parent="1" vertex="1">
          <mxGeometry width="820" height="660" as="geometry" />
        </mxCell>
        <mxCell id="vqSrxHvqfmINnTe388tX-32" value="" style="rounded=0;whiteSpace=wrap;html=1;" parent="1" vertex="1">
          <mxGeometry x="650" y="210" width="160" height="210" as="geometry" />
        </mxCell>
        <mxCell id="vqSrxHvqfmINnTe388tX-1" value="" style="rounded=0;whiteSpace=wrap;html=1;" parent="1" vertex="1">
          <mxGeometry x="80" y="40" width="550" height="550" as="geometry" />
        </mxCell>
        <mxCell id="vqSrxHvqfmINnTe388tX-2" value="" style="endArrow=none;html=1;rounded=0;exitX=0;exitY=0.5;exitDx=0;exitDy=0;entryX=1;entryY=0.5;entryDx=0;entryDy=0;" parent="1" source="vqSrxHvqfmINnTe388tX-1" target="vqSrxHvqfmINnTe388tX-1" edge="1">
          <mxGeometry width="50" height="50" relative="1" as="geometry">
            <mxPoint x="350" y="440" as="sourcePoint" />
            <mxPoint x="400" y="390" as="targetPoint" />
          </mxGeometry>
        </mxCell>
        <mxCell id="vqSrxHvqfmINnTe388tX-3" value="" style="endArrow=none;html=1;rounded=0;exitX=0.5;exitY=1;exitDx=0;exitDy=0;entryX=0.5;entryY=0;entryDx=0;entryDy=0;" parent="1" source="vqSrxHvqfmINnTe388tX-1" target="vqSrxHvqfmINnTe388tX-1" edge="1">
          <mxGeometry width="50" height="50" relative="1" as="geometry">
            <mxPoint x="350" y="320" as="sourcePoint" />
            <mxPoint x="400" y="270" as="targetPoint" />
          </mxGeometry>
        </mxCell>
        <mxCell id="vqSrxHvqfmINnTe388tX-4" value="&lt;font style=&quot;font-size: 18px;&quot;&gt;Einfluss&lt;/font&gt;" style="text;html=1;strokeColor=none;fillColor=none;align=center;verticalAlign=middle;whiteSpace=wrap;rounded=0;" parent="1" vertex="1">
          <mxGeometry x="10" y="40" width="60" height="30" as="geometry" />
        </mxCell>
        <mxCell id="vqSrxHvqfmINnTe388tX-5" value="&lt;font style=&quot;font-size: 18px;&quot;&gt;Einstellung&lt;/font&gt;" style="text;html=1;strokeColor=none;fillColor=none;align=center;verticalAlign=middle;whiteSpace=wrap;rounded=0;" parent="1" vertex="1">
          <mxGeometry x="540" y="600" width="90" height="30" as="geometry" />
        </mxCell>
        <mxCell id="vqSrxHvqfmINnTe388tX-6" value="" style="shape=flexArrow;endArrow=classic;html=1;rounded=0;" parent="1" edge="1">
          <mxGeometry width="50" height="50" relative="1" as="geometry">
            <mxPoint x="39.5" y="380" as="sourcePoint" />
            <mxPoint x="39.5" y="250" as="targetPoint" />
          </mxGeometry>
        </mxCell>
        <mxCell id="vqSrxHvqfmINnTe388tX-8" value="" style="shape=flexArrow;endArrow=classic;html=1;rounded=0;" parent="1" edge="1">
          <mxGeometry width="50" height="50" relative="1" as="geometry">
            <mxPoint x="260" y="614.5" as="sourcePoint" />
            <mxPoint x="450" y="614.5" as="targetPoint" />
          </mxGeometry>
        </mxCell>
        <mxCell id="vqSrxHvqfmINnTe388tX-9" value="Entwicklungs&lt;br&gt;Team" style="ellipse;whiteSpace=wrap;html=1;aspect=fixed;fillColor=#a20025;fontColor=#ffffff;strokeColor=#6F0000;" parent="1" vertex="1">
          <mxGeometry x="490" y="50" width="130" height="130" as="geometry" />
        </mxCell>
        <mxCell id="vqSrxHvqfmINnTe388tX-10" value="Betreuer" style="ellipse;whiteSpace=wrap;html=1;aspect=fixed;fillColor=#a20025;fontColor=#ffffff;strokeColor=#6F0000;" parent="1" vertex="1">
          <mxGeometry x="374" y="170" width="100" height="100" as="geometry" />
        </mxCell>
        <mxCell id="vqSrxHvqfmINnTe388tX-12" value="&lt;font style=&quot;font-size: 14px;&quot;&gt;Einbindungsgrad&lt;/font&gt;" style="text;html=1;strokeColor=none;fillColor=none;align=center;verticalAlign=middle;whiteSpace=wrap;rounded=0;" parent="1" vertex="1">
          <mxGeometry x="677.5" y="210" width="105" height="30" as="geometry" />
        </mxCell>
        <mxCell id="vqSrxHvqfmINnTe388tX-13" value="" style="ellipse;whiteSpace=wrap;html=1;aspect=fixed;fillColor=#a20025;fontColor=#ffffff;strokeColor=#6F0000;" parent="1" vertex="1">
          <mxGeometry x="730" y="240" width="50" height="50" as="geometry" />
        </mxCell>
        <mxCell id="vqSrxHvqfmINnTe388tX-14" value="" style="ellipse;whiteSpace=wrap;html=1;aspect=fixed;fillColor=#6a00ff;fontColor=#ffffff;strokeColor=#3700CC;" parent="1" vertex="1">
          <mxGeometry x="730" y="300" width="50" height="50" as="geometry" />
        </mxCell>
        <mxCell id="vqSrxHvqfmINnTe388tX-15" value="" style="ellipse;whiteSpace=wrap;html=1;aspect=fixed;fillColor=#1ba1e2;fontColor=#ffffff;strokeColor=#006EAF;" parent="1" vertex="1">
          <mxGeometry x="730" y="360" width="50" height="50" as="geometry" />
        </mxCell>
        <mxCell id="vqSrxHvqfmINnTe388tX-18" value="" style="shape=flexArrow;endArrow=classic;html=1;rounded=0;" parent="1" edge="1">
          <mxGeometry width="50" height="50" relative="1" as="geometry">
            <mxPoint x="680" y="400" as="sourcePoint" />
            <mxPoint x="680" y="240" as="targetPoint" />
          </mxGeometry>
        </mxCell>
        <mxCell id="vqSrxHvqfmINnTe388tX-19" value="Kantinien&lt;br&gt;Mitarbeiter" style="ellipse;whiteSpace=wrap;html=1;aspect=fixed;fillColor=#6a00ff;fontColor=#ffffff;strokeColor=#3700CC;" parent="1" vertex="1">
          <mxGeometry x="520" y="275" width="95" height="95" as="geometry" />
        </mxCell>
        <mxCell id="vqSrxHvqfmINnTe388tX-23" value="Mitarbeiter" style="ellipse;whiteSpace=wrap;html=1;aspect=fixed;fillColor=#1ba1e2;fontColor=#ffffff;strokeColor=#006EAF;" parent="1" vertex="1">
          <mxGeometry x="490" y="410" width="80" height="80" as="geometry" />
        </mxCell>
        <mxCell id="vqSrxHvqfmINnTe388tX-28" value="&lt;strong&gt;Finanz-&lt;/strong&gt;&lt;div&gt;&lt;strong&gt;abteilung&lt;/strong&gt;&lt;/div&gt;" style="ellipse;whiteSpace=wrap;html=1;aspect=fixed;fillColor=#6a00ff;fontColor=#ffffff;strokeColor=#3700CC;" parent="1" vertex="1">
          <mxGeometry x="440" y="300" width="60" height="60" as="geometry" />
        </mxCell>
        <mxCell id="vqSrxHvqfmINnTe388tX-29" value="Posotiv" style="text;html=1;strokeColor=none;fillColor=none;align=center;verticalAlign=middle;whiteSpace=wrap;rounded=0;" parent="1" vertex="1">
          <mxGeometry x="410" y="630" width="60" height="30" as="geometry" />
        </mxCell>
        <mxCell id="vqSrxHvqfmINnTe388tX-30" value="Negativ" style="text;html=1;strokeColor=none;fillColor=none;align=center;verticalAlign=middle;whiteSpace=wrap;rounded=0;" parent="1" vertex="1">
          <mxGeometry x="255" y="630" width="60" height="30" as="geometry" />
        </mxCell>
      </root>
    </mxGraphModel>
  </diagram>
</mxfile>
